<svg width="76" height="18" viewBox="0 0 76 18" fill="none" xmlns="http://www.w3.org/2000/svg">
<g id="Logotype">
<path id="Vector" d="M72.7085 1.57808C72.7085 0.665754 73.3377 0 74.3059 0C75.2256 0 75.8548 0.665754 75.8548 1.57808C75.8548 2.56438 75.2256 3.18082 74.3059 3.18082C73.3377 3.18082 72.7085 2.56438 72.7085 1.57808ZM76 17.6301H72.6117V5.30137H76V17.6301Z" fill="#191F2E"/>
<path id="Vector_2" d="M69.3601 17.6301H66.3589L66.0201 16.0028C64.7857 17.2603 63.0189 18 60.9617 18C56.944 18 53.9187 15.2137 53.9187 11.4904C53.9187 7.71782 56.9198 4.93152 60.9617 4.93152C62.9947 4.93152 64.7857 5.64659 66.0201 6.92878L66.3589 5.30138H69.3601V17.6301ZM57.3071 11.4904C57.3071 13.4877 59.1465 14.9425 61.6878 14.9425C64.2533 14.9425 65.9717 13.537 65.9717 11.4904C65.9717 9.41919 64.2291 7.9644 61.6878 7.9644C59.1465 7.9644 57.3071 9.44385 57.3071 11.4904Z" fill="#191F2E"/>
<path id="Vector_3" d="M52.2514 12.8219C52.2514 15.6822 49.5164 18 44.9905 18C40.4404 18 36.9068 15.7315 36.6648 12.3288H40.1984C40.5614 13.9808 42.4735 15.0411 44.9421 15.0411C47.2414 15.0411 48.863 14.0548 48.863 12.7233C48.863 8.60548 36.8826 12.7973 36.8826 4.90685C36.8826 1.87397 40.029 0 44.1918 0C48.5967 0 51.6947 2.14521 51.9609 5.27671H48.4515C48.1611 3.94521 46.3701 2.86027 44.1918 2.86027C41.82 2.86027 40.271 3.7726 40.271 5.00548C40.271 8.8274 52.2514 4.83288 52.2514 12.8219Z" fill="#191F2E"/>
<path id="Vector_4" d="M19.6884 17.6301V0.369873H28.3529C31.9834 0.369873 35.0329 2.81097 35.0329 6.48494C35.0329 9.96165 31.8139 12.6 28.3529 12.6H23.0767V17.6301H19.6884ZM31.6445 6.48494C31.6445 4.78357 30.2408 3.5507 28.3529 3.5507H23.0767V9.36987H28.3529C30.2166 9.36987 31.6445 8.11234 31.6445 6.48494Z" fill="#191F2E"/>
<path id="Vector_5" d="M3.38838 6.11505V17.6301H0V0.369848H2.71071L13.2389 11.8109V0.369848H16.6273V17.6301H13.8924L3.38838 6.11505Z" fill="#191F2E"/>
</g>
</svg>
