<svg width="32" height="32" viewBox="0 0 32 32" fill="none" xmlns="http://www.w3.org/2000/svg">
<g id="Layer_1-2">
<g id="Group">
<path id="Vector" d="M32 15.8195C32 18.8091 31.161 21.6048 29.7024 23.9898C28.7981 25.4727 27.6523 26.7955 26.3205 27.9074C26.0639 28.1232 25.7994 28.3301 25.5288 28.529C25.2773 28.714 25.0188 28.892 24.7562 29.0621C24.6345 29.1406 24.5108 29.2182 24.387 29.2938C24.1235 29.4549 23.8539 29.6081 23.5793 29.7543C23.539 29.7762 23.4988 29.797 23.4586 29.8179C23.368 29.8657 23.2765 29.9124 23.1849 29.9572C22.6629 30.2187 22.1227 30.4515 21.5684 30.6544C21.1419 30.8105 20.7073 30.9497 20.2657 31.0701C19.5565 31.264 18.8262 31.4102 18.0798 31.5057C17.8887 31.5316 17.6955 31.5524 17.5024 31.5694C17.3434 31.5843 17.1835 31.5972 17.0235 31.6062C17.0105 31.6071 16.9984 31.6081 16.9853 31.6091C16.7137 31.626 16.4391 31.635 16.1625 31.638H16.1413C16.1293 31.638 16.1162 31.638 16.1041 31.638C16.0699 31.638 16.0357 31.638 16.0015 31.638H15.9864C15.9271 31.638 15.8687 31.638 15.8104 31.638C15.5438 31.635 15.2802 31.625 15.0177 31.6091C14.9986 31.6081 14.9785 31.6071 14.9594 31.6052C14.9473 31.6052 14.9352 31.6042 14.9241 31.6022C14.5811 31.5803 14.2421 31.5475 13.9051 31.5037C13.2633 31.4212 12.6336 31.3008 12.018 31.1447C11.4728 31.0064 10.9386 30.8403 10.4165 30.6484C9.96687 30.4833 9.52828 30.2983 9.09975 30.0944C8.99211 30.0447 8.88649 29.992 8.78086 29.9393C8.65914 29.8796 8.53944 29.8179 8.42074 29.7543C8.14813 29.6091 7.87954 29.4559 7.61699 29.2958C7.48521 29.2152 7.35544 29.1337 7.22568 29.0501C6.96514 28.8811 6.71064 28.704 6.46116 28.521C6.29317 28.3977 6.12819 28.2714 5.96523 28.1391C4.51165 26.9824 3.2673 25.5771 2.29757 23.9898C0.838955 21.6048 0 18.8091 0 15.8195C0 7.08326 7.16331 0 16.0005 0C24.8377 0 32 7.08326 32 15.8195Z" fill="#91C6EE"/>
<g id="Group_2">
<path id="Vector_2" d="M26.3204 25.5721V27.9073C26.0639 28.1232 25.7994 28.33 25.5288 28.5289C25.2773 28.7139 25.0188 28.892 24.7562 29.062C24.6345 29.1406 24.5108 29.2182 24.387 29.2938C24.1235 29.4549 23.8539 29.608 23.5793 29.7542C23.539 29.7761 23.4988 29.797 23.4585 29.8179C23.368 29.8656 23.2765 29.9124 23.1849 29.9571C22.6628 30.2187 22.1227 30.4514 21.5684 30.6543C21.1419 30.8105 20.7073 30.9497 20.2657 31.07C20.2617 30.9686 20.2576 30.8701 20.2536 30.7757C20.1399 27.8984 20.0524 27.7979 20.0524 27.6796V24.314C20.0524 24.1927 20.0615 24.0743 20.0786 23.9579C20.2526 22.7615 21.2928 21.8435 22.5502 21.8435C22.6327 21.8435 22.7142 21.8465 22.7956 21.8515C23.7402 21.9111 24.5892 22.3149 25.2169 22.9355C25.9 23.6108 26.3215 24.5427 26.3215 25.5721H26.3204Z" fill="white"/>
<path id="Vector_3" d="M23.185 23.8894V29.9572C22.6629 30.2188 22.1227 30.4515 21.5684 30.6544C21.1419 30.8106 20.7073 30.9498 20.2657 31.0701C19.5565 31.2641 18.8262 31.4103 18.0798 31.5058C17.8887 31.5316 17.6955 31.5525 17.5024 31.5694C17.3435 31.5843 17.1835 31.5973 17.0236 31.6062C17.0105 31.6072 16.9984 31.6082 16.9853 31.6092C16.7137 31.6261 16.4391 31.635 16.1625 31.638H16.1444V32.0001H16.1414V18.3378H17.5718C18.615 18.3378 19.5917 18.6192 20.4287 19.1095C20.9125 19.393 21.3501 19.7461 21.7273 20.1558C22.18 20.6481 22.5452 21.222 22.7957 21.8516C23.0482 22.4821 23.186 23.1693 23.186 23.8894H23.185Z" fill="#E5E5E5"/>
<path id="Vector_4" d="M20.824 24.8959V29.8975C20.824 30.2874 20.5906 30.6236 20.2536 30.7757C20.1299 30.8324 19.9931 30.8633 19.8483 30.8633H16.1414V23.9302H19.8483C19.9277 23.9302 20.0042 23.9391 20.0776 23.958C20.5061 24.0595 20.824 24.4414 20.824 24.8959Z" fill="#4EB7B4"/>
<path id="Vector_5" d="M16.1404 29.5444V25.2489C16.6494 25.2489 17.1986 25.422 17.7318 25.8238C19.0958 27.5951 17.8484 29.5444 16.1404 29.5444Z" fill="white"/>
<path id="Vector_6" d="M21.0393 20.9853C20.9135 20.4999 20.488 20.1737 19.981 20.1737V20.856C19.9006 20.856 19.798 21.405 19.7728 21.3065C19.7477 21.208 19.807 21.1066 19.8754 21.0688C19.812 21.1036 19.7487 21.1364 19.6843 21.1693L19.6712 21.1752C19.5998 21.21 19.5274 21.2458 19.4549 21.2797L19.4449 21.2846C19.3775 21.3155 19.3111 21.3453 19.2437 21.3751H19.2417L19.2336 21.3791C19.1612 21.4099 19.0888 21.4398 19.0133 21.4686C18.9399 21.4975 18.8675 21.5253 18.787 21.5542C18.7206 21.578 18.6552 21.6009 18.5888 21.6218L18.5214 21.6437C18.4701 21.6616 18.4168 21.6775 18.3645 21.6914L18.3212 21.7053C18.2619 21.7222 18.2015 21.7391 18.1392 21.7551L17.9752 21.7958C17.9551 21.8008 17.9349 21.8058 17.9138 21.8098L17.8947 21.8137C17.8464 21.8247 17.8002 21.8356 17.7509 21.8456C17.7408 21.8476 17.7287 21.8495 17.7136 21.8525L17.6965 21.8555C17.6442 21.8664 17.5909 21.8754 17.5386 21.8853L17.4964 21.8933C17.4722 21.8983 17.4471 21.9013 17.4199 21.9062L17.4008 21.9092C17.3887 21.9112 17.3767 21.9132 17.3646 21.9152L17.2881 21.9271C17.2751 21.9291 17.261 21.9321 17.2469 21.9331L17.2258 21.9361C17.2026 21.9391 17.1795 21.943 17.1553 21.946C17.1413 21.947 17.1282 21.949 17.1171 21.951L17.0075 21.9629H16.9773L16.9421 21.9699C16.93 21.9709 16.9189 21.9719 16.9069 21.9729L16.8827 21.9749C16.8586 21.9778 16.8344 21.9798 16.8103 21.9818H16.7932V21.027H16.1393V23.3026C16.1786 23.3026 16.2178 23.3026 16.257 23.3016C16.2973 23.3016 16.3365 23.3006 16.3778 23.2996H16.4029C16.4291 23.2986 16.4562 23.2976 16.4824 23.2966C16.5186 23.2956 16.5548 23.2946 16.593 23.2917C16.6111 23.2917 16.6292 23.2897 16.6473 23.2887C16.6866 23.2867 16.7268 23.2847 16.765 23.2827H16.7741C16.7791 23.2827 16.7842 23.2817 16.7892 23.2807L16.9169 23.2708C16.9501 23.2678 16.9823 23.2658 17.0155 23.2618C17.0346 23.2598 17.0548 23.2588 17.0749 23.2559L17.3233 23.229L17.3334 23.227C17.3595 23.224 17.3857 23.22 17.4119 23.2161C17.44 23.2121 17.4682 23.2081 17.4954 23.2041L17.5507 23.1962C17.5768 23.1922 17.604 23.1882 17.6301 23.1842C17.6664 23.1783 17.7026 23.1733 17.7458 23.1653L17.779 23.1594C17.8364 23.1484 17.8937 23.1385 17.951 23.1266C17.9621 23.1246 17.9752 23.1216 17.9913 23.1186L18.0154 23.1136C18.0738 23.1017 18.1291 23.0888 18.1864 23.0758C18.2267 23.0679 18.2679 23.0579 18.3071 23.048C18.3263 23.043 18.3464 23.039 18.3655 23.0341L18.4691 23.0082C18.5395 22.9903 18.6089 22.9704 18.6793 22.9505C18.6985 22.9455 18.7176 22.9396 18.7357 22.9336C18.8001 22.9157 18.8634 22.8958 18.9248 22.8759C18.956 22.867 18.9831 22.858 19.0073 22.8491C19.0847 22.8242 19.1622 22.7974 19.2336 22.7715C19.3221 22.7397 19.4107 22.7059 19.4972 22.672C19.5746 22.6412 19.6521 22.6104 19.7285 22.5776C19.7456 22.5716 19.7617 22.5636 19.7788 22.5567C19.8462 22.5268 19.9126 22.497 19.979 22.4672C19.9981 22.4592 20.0162 22.4513 20.0343 22.4413C20.1017 22.4095 20.1691 22.3767 20.2355 22.3438C20.2567 22.3349 20.2768 22.3249 20.2959 22.314C20.3663 22.2782 20.4357 22.2414 20.5031 22.2046C20.9487 21.9629 21.163 21.4746 21.0373 20.9883L21.0393 20.9853Z" fill="#3C3642"/>
<path id="Vector_7" d="M16.1404 20.4084V5.56458C18.4701 5.56458 20.5796 6.49847 22.1066 8.00722C23.6326 9.51696 24.5772 11.6026 24.5772 13.906C24.5772 16.3944 23.4747 18.6291 21.7263 20.1568C21.1992 20.6183 20.6138 21.0151 19.981 21.3343C19.975 21.3383 19.969 21.3413 19.9629 21.3433C19.8885 21.3801 19.813 21.4169 19.7376 21.4527C19.7326 21.4557 19.7265 21.4587 19.7205 21.4606C19.6491 21.4935 19.5777 21.5253 19.5052 21.5571C19.5002 21.5591 19.4962 21.5621 19.4911 21.5631C19.4137 21.5959 19.3352 21.6277 19.2568 21.6586C19.1763 21.6904 19.0958 21.7212 19.0143 21.7501C18.9409 21.7769 18.8675 21.8018 18.794 21.8256C18.7749 21.8326 18.7548 21.8396 18.7347 21.8445C18.6703 21.8664 18.6049 21.8863 18.5395 21.9042C18.5285 21.9082 18.5174 21.9122 18.5053 21.9152C18.4389 21.9341 18.3725 21.953 18.3061 21.9699C18.287 21.9748 18.2679 21.9798 18.2488 21.9848C18.2156 21.9927 18.1814 22.0017 18.1472 22.0096C18.114 22.0186 18.0798 22.0266 18.0456 22.0335C17.9903 22.0464 17.936 22.0584 17.8796 22.0703C17.8625 22.0733 17.8454 22.0773 17.8283 22.0803C17.7639 22.0932 17.6986 22.1051 17.6342 22.1171L17.6191 22.12C17.5869 22.126 17.5547 22.131 17.5225 22.136C17.4903 22.1419 17.4571 22.1459 17.4249 22.1509C17.3917 22.1558 17.3585 22.1618 17.3243 22.1658C17.2911 22.1708 17.2569 22.1757 17.2227 22.1797C17.2187 22.1797 17.2147 22.1807 17.2107 22.1817C17.1916 22.1837 17.1724 22.1857 17.1523 22.1877C17.1181 22.1916 17.0829 22.1956 17.0477 22.1996C17.0447 22.1996 17.0427 22.2006 17.0397 22.2006C17.0115 22.2036 16.9833 22.2066 16.9562 22.2086C16.9109 22.2135 16.8666 22.2165 16.8214 22.2205C16.7952 22.2225 16.7701 22.2245 16.7439 22.2265C16.7389 22.2265 16.7349 22.2275 16.7298 22.2275C16.6876 22.2304 16.6443 22.2324 16.6021 22.2344C16.585 22.2364 16.5679 22.2364 16.5508 22.2374C16.5186 22.2394 16.4864 22.2404 16.4542 22.2414C16.422 22.2434 16.3898 22.2434 16.3576 22.2444C16.3224 22.2454 16.2862 22.2463 16.249 22.2463C16.2128 22.2463 16.1766 22.2463 16.1404 22.2463V20.4084Z" fill="white"/>
<path id="Vector_8" d="M16.1404 20.4084V7.19263C18.0144 7.19263 19.7124 7.94451 20.9407 9.15887C21.2847 9.49901 21.5915 9.87496 21.8541 10.2807C22.3913 11.1062 22.7504 12.053 22.8771 13.0725C22.9113 13.345 22.9294 13.6225 22.9294 13.9049C22.9294 14.1874 22.9123 14.4649 22.8781 14.7374C22.7504 15.7558 22.3913 16.7046 21.8551 17.5291C21.4668 18.1278 20.984 18.6619 20.4277 19.1095C19.6782 19.7142 18.795 20.1637 17.8283 20.4084C17.2891 20.5446 16.7228 20.6172 16.1404 20.6172V20.4084Z" fill="#4EB7B4"/>
<path id="Vector_9" d="M22.4768 18.0821C23.1679 18.0821 23.7282 16.2123 23.7282 13.9059C23.7282 11.5995 23.1679 9.72974 22.4768 9.72974C21.7856 9.72974 21.2254 11.5995 21.2254 13.9059C21.2254 16.2123 21.7856 18.0821 22.4768 18.0821Z" fill="white"/>
<path id="Vector_10" d="M23.1568 14.7822C23.6462 14.7822 24.043 14.3899 24.043 13.906C24.043 13.4221 23.6462 13.0298 23.1568 13.0298C22.6673 13.0298 22.2705 13.4221 22.2705 13.906C22.2705 14.3899 22.6673 14.7822 23.1568 14.7822Z" fill="#4EB7B4"/>
<path id="Vector_11" d="M12.2333 24.314V27.6796C12.2333 27.7979 12.1457 27.8984 12.0321 30.7757C12.027 30.894 12.022 31.0163 12.017 31.1446C11.4718 31.0064 10.9376 30.8403 10.4155 30.6484C9.96587 30.4833 9.52728 30.2983 9.09875 30.0944C8.99111 30.0447 8.88549 29.9919 8.77986 29.9392C8.65814 29.8796 8.53844 29.8179 8.41974 29.7542C8.14713 29.609 7.87854 29.4559 7.61599 29.2958C7.48421 29.2152 7.35444 29.1336 7.22468 29.0501C6.96414 28.881 6.70964 28.704 6.46016 28.521C6.29217 28.3977 6.1272 28.2714 5.96423 28.1391V25.5721C5.96423 24.5427 6.38572 23.6108 7.06876 22.9355C7.69646 22.3149 8.54548 21.9111 9.49006 21.8515C9.57154 21.8465 9.65302 21.8435 9.73551 21.8435C10.9929 21.8435 12.0331 22.7615 12.2071 23.9579C12.2242 24.0743 12.2333 24.1927 12.2333 24.314Z" fill="#CCCCCC"/>
<path id="Vector_12" d="M16.1434 18.3378V32.0001H16.1403V31.638C16.1283 31.638 16.1152 31.638 16.1031 31.638C16.0689 31.638 16.0347 31.638 16.0005 31.638H15.9854C15.9261 31.638 15.8677 31.638 15.8094 31.638C15.5428 31.635 15.2793 31.6251 15.0167 31.6092C14.9976 31.6082 14.9775 31.6072 14.9584 31.6052C14.9463 31.6052 14.9342 31.6042 14.9232 31.6022C14.5801 31.5803 14.2411 31.5475 13.9041 31.5038C13.2623 31.4212 12.6326 31.3009 12.017 31.1447C11.4718 31.0065 10.9376 30.8404 10.4155 30.6484C9.96588 30.4833 9.52729 30.2984 9.09875 30.0945V23.8894C9.09875 23.1693 9.23657 22.4821 9.49007 21.8516C9.73954 21.222 10.1047 20.6481 10.5574 20.1558C10.9346 19.7461 11.3722 19.393 11.856 19.1095C12.693 18.6192 13.6698 18.3378 14.7129 18.3378H16.1434Z" fill="#B7B7B7"/>
<path id="Vector_13" d="M11.4607 24.8959V29.8975C11.4607 30.2874 11.6941 30.6236 12.0311 30.7757C12.1548 30.8324 12.2916 30.8633 12.4365 30.8633H16.1434V23.9302H12.4365C12.357 23.9302 12.2805 23.9391 12.2071 23.958C11.7786 24.0595 11.4607 24.4414 11.4607 24.8959Z" fill="#3E9290"/>
<path id="Vector_14" d="M16.1444 29.5444V25.2489C15.6354 25.2489 15.0861 25.422 14.553 25.8238C13.1889 27.5951 14.4363 29.5444 16.1444 29.5444Z" fill="#CCCCCC"/>
<path id="Vector_15" d="M11.2454 20.9853C11.3712 20.4999 11.7967 20.1737 12.3037 20.1737V20.856C12.3842 20.856 12.4868 21.405 12.5119 21.3065C12.5371 21.208 12.4777 21.1066 12.4093 21.0688C12.4727 21.1036 12.5361 21.1364 12.6004 21.1693L12.6135 21.1752C12.6849 21.21 12.7574 21.2458 12.8298 21.2797L12.8399 21.2846C12.9073 21.3155 12.9736 21.3453 13.041 21.3751H13.0431L13.0511 21.3791C13.1235 21.4099 13.196 21.4398 13.2714 21.4686C13.3448 21.4975 13.4173 21.5253 13.4977 21.5542C13.5641 21.578 13.6295 21.6009 13.6959 21.6218L13.7633 21.6437C13.8146 21.6616 13.8679 21.6775 13.9202 21.6914L13.9635 21.7053C14.0228 21.7222 14.0832 21.7391 14.1456 21.7551L14.3095 21.7958C14.3297 21.8008 14.3498 21.8058 14.3709 21.8098L14.39 21.8137C14.4383 21.8247 14.4846 21.8356 14.5339 21.8456C14.5439 21.8476 14.556 21.8495 14.5711 21.8525L14.5882 21.8555C14.6405 21.8664 14.6938 21.8754 14.7461 21.8853L14.7884 21.8933C14.8125 21.8983 14.8377 21.9013 14.8648 21.9062L14.8839 21.9092C14.896 21.9112 14.9081 21.9132 14.9201 21.9152L14.9966 21.9271C15.0097 21.9291 15.0238 21.9321 15.0378 21.9331L15.059 21.9361C15.0821 21.9391 15.1052 21.943 15.1294 21.946C15.1435 21.947 15.1565 21.949 15.1676 21.951L15.2773 21.9629H15.3074L15.3426 21.9699C15.3547 21.9709 15.3658 21.9719 15.3778 21.9729L15.402 21.9749C15.4261 21.9778 15.4503 21.9798 15.4744 21.9818H15.4915V21.027H16.1454V23.3026C16.1061 23.3026 16.0669 23.3026 16.0277 23.3016C15.9874 23.3016 15.9482 23.3006 15.907 23.2996H15.8818C15.8557 23.2986 15.8285 23.2976 15.8024 23.2966C15.7661 23.2956 15.7299 23.2946 15.6917 23.2917C15.6736 23.2917 15.6555 23.2897 15.6374 23.2887C15.5981 23.2867 15.5579 23.2847 15.5197 23.2827H15.5106C15.5056 23.2827 15.5006 23.2817 15.4955 23.2807L15.3678 23.2708C15.3346 23.2678 15.3024 23.2658 15.2692 23.2618C15.2501 23.2598 15.23 23.2588 15.2099 23.2559L14.9614 23.229L14.9513 23.227C14.9252 23.224 14.899 23.22 14.8729 23.2161C14.8447 23.2121 14.8165 23.2081 14.7894 23.2041L14.734 23.1962C14.7079 23.1922 14.6807 23.1882 14.6546 23.1832C14.6184 23.1773 14.5821 23.1723 14.5389 23.1644L14.5057 23.1584C14.4484 23.1474 14.391 23.1375 14.3337 23.1256C14.3226 23.1236 14.3095 23.1206 14.2934 23.1176L14.2693 23.1126C14.211 23.1007 14.1556 23.0878 14.0983 23.0748C14.058 23.0669 14.0168 23.0569 13.9776 23.047C13.9585 23.042 13.9383 23.038 13.9192 23.0331L13.8156 23.0072C13.7452 22.9893 13.6758 22.9694 13.6054 22.9495C13.5863 22.9446 13.5672 22.9386 13.549 22.9326C13.4847 22.9147 13.4213 22.8948 13.3599 22.8749C13.3287 22.866 13.3016 22.857 13.2774 22.8481C13.2 22.8232 13.1225 22.7964 13.0511 22.7705C12.9626 22.7387 12.8741 22.7049 12.7875 22.671C12.7101 22.6402 12.6326 22.6094 12.5562 22.5766C12.5391 22.5706 12.523 22.5626 12.5059 22.5557C12.4385 22.5258 12.3721 22.496 12.3057 22.4662C12.2866 22.4582 12.2685 22.4503 12.2504 22.4403C12.183 22.4085 12.1156 22.3757 12.0492 22.3428C12.0281 22.3339 12.0079 22.3239 11.9888 22.313C11.9184 22.2772 11.849 22.2404 11.7816 22.2036C11.336 21.9619 11.1217 21.4736 11.2474 20.9873L11.2454 20.9853Z" fill="#302B35"/>
<path id="Vector_16" d="M16.1444 20.4084V5.56458C13.8146 5.56458 11.7051 6.49847 10.1781 8.00722C8.6521 9.51696 7.70752 11.6026 7.70752 13.906C7.70752 16.3944 8.81003 18.6291 10.5584 20.1568C11.0855 20.6183 11.6709 21.0151 12.3037 21.3343C12.3097 21.3383 12.3157 21.3413 12.3218 21.3433C12.3962 21.3801 12.4717 21.4169 12.5471 21.4527C12.5521 21.4557 12.5582 21.4587 12.5642 21.4606C12.6356 21.4935 12.707 21.5253 12.7795 21.5571C12.7845 21.5591 12.7885 21.5621 12.7936 21.5631C12.871 21.5959 12.9495 21.6277 13.0279 21.6586C13.1084 21.6904 13.1889 21.7212 13.2704 21.7501C13.3438 21.7769 13.4172 21.8018 13.4907 21.8256C13.5098 21.8326 13.5299 21.8396 13.55 21.8445C13.6144 21.8664 13.6798 21.8863 13.7452 21.9042C13.7562 21.9082 13.7673 21.9122 13.7794 21.9152C13.8458 21.9341 13.9122 21.953 13.9786 21.9699C13.9977 21.9748 14.0168 21.9798 14.0359 21.9848C14.0691 21.9927 14.1033 22.0017 14.1375 22.0096C14.1707 22.0186 14.2049 22.0266 14.2391 22.0335C14.2944 22.0464 14.3487 22.0584 14.4051 22.0703C14.4222 22.0733 14.4393 22.0773 14.4564 22.0803C14.5208 22.0932 14.5861 22.1051 14.6505 22.1171L14.6656 22.12C14.6978 22.126 14.73 22.131 14.7622 22.136C14.7944 22.1419 14.8276 22.1459 14.8598 22.1509C14.893 22.1558 14.9262 22.1618 14.9604 22.1658C14.9936 22.1708 15.0278 22.1757 15.062 22.1797C15.066 22.1797 15.07 22.1807 15.074 22.1817C15.0931 22.1837 15.1123 22.1857 15.1324 22.1877C15.1666 22.1916 15.2018 22.1956 15.237 22.1996C15.24 22.1996 15.242 22.2006 15.245 22.2006C15.2732 22.2036 15.3014 22.2066 15.3285 22.2086C15.3738 22.2135 15.4181 22.2165 15.4633 22.2205C15.4895 22.2225 15.5146 22.2245 15.5408 22.2265C15.5458 22.2265 15.5498 22.2275 15.5549 22.2275C15.5971 22.2304 15.6404 22.2324 15.6826 22.2344C15.6997 22.2364 15.7168 22.2364 15.7339 22.2374C15.7661 22.2394 15.7983 22.2404 15.8305 22.2414C15.8627 22.2434 15.8949 22.2434 15.9271 22.2444C15.9623 22.2454 15.9985 22.2463 16.0357 22.2463C16.0719 22.2463 16.1081 22.2463 16.1444 22.2463V20.4084Z" fill="#CCCCCC"/>
<path id="Vector_17" d="M16.1444 20.4084V7.19263C14.2703 7.19263 12.5723 7.94451 11.344 9.15887C11 9.49901 10.6932 9.87496 10.4306 10.2807C9.89343 11.1062 9.53431 12.053 9.40756 13.0725C9.37336 13.345 9.35526 13.6225 9.35526 13.9049C9.35526 14.1874 9.37236 14.4649 9.40656 14.7374C9.53431 15.7558 9.89343 16.7046 10.4296 17.5291C10.8179 18.1278 11.3007 18.6619 11.857 19.1095C12.6065 19.7142 13.4897 20.1637 14.4564 20.4084C14.9956 20.5446 15.5619 20.6172 16.1444 20.6172V20.4084Z" fill="#3E9290"/>
<path id="Vector_18" d="M9.80794 18.0821C10.4991 18.0821 11.0593 16.2123 11.0593 13.9059C11.0593 11.5995 10.4991 9.72974 9.80794 9.72974C9.11682 9.72974 8.55655 11.5995 8.55655 13.9059C8.55655 16.2123 9.11682 18.0821 9.80794 18.0821Z" fill="#CCCCCC"/>
<path id="Vector_19" d="M9.12793 14.7822C9.61739 14.7822 10.0142 14.3899 10.0142 13.906C10.0142 13.4221 9.61739 13.0298 9.12793 13.0298C8.63848 13.0298 8.2417 13.4221 8.2417 13.906C8.2417 14.3899 8.63848 14.7822 9.12793 14.7822Z" fill="#3E9290"/>
</g>
</g>
</g>
</svg>
